<?xml version="1.0" standalone="no"?>
<!DOCTYPE svg PUBLIC "-//W3C//DTD SVG 20010904//EN"
 "http://www.w3.org/TR/2001/REC-SVG-20010904/DTD/svg10.dtd">
<svg version="1.0" xmlns="http://www.w3.org/2000/svg"
 width="600.000000pt" height="600.000000pt" viewBox="0 0 600.000000 600.000000"
 preserveAspectRatio="xMidYMid meet">
<metadata>
Created by potrace 1.11, written by Peter Selinger 2001-2013
</metadata>
<g transform="translate(0.000000,600.000000) scale(0.100000,-0.100000)"
fill="#000000" stroke="none">
<path d="M3455 5544 c-240 -66 -389 -106 -720 -194 -165 -44 -325 -87 -355
-95 -102 -28 -313 -85 -670 -180 -195 -52 -413 -111 -485 -130 -71 -19 -290
-78 -485 -130 -195 -52 -411 -110 -480 -129 -69 -18 -155 -42 -192 -51 l-68
-18 0 -1448 c0 -797 4 -1449 8 -1449 4 0 131 33 282 74 151 40 498 133 770
206 272 73 674 181 893 240 l397 107 0 -314 c0 -203 4 -313 10 -313 12 0 53
11 625 165 407 109 891 239 1890 506 264 71 536 144 605 163 69 18 214 57 323
86 l197 53 0 1449 c0 796 -3 1448 -6 1448 -8 0 -500 -131 -959 -255 -71 -19
-290 -78 -485 -130 -333 -89 -417 -112 -745 -200 -71 -19 -135 -35 -142 -35
-10 0 -13 67 -13 310 0 289 -1 310 -17 309 -10 -1 -90 -21 -178 -45z m2002
-636 c-2 -7 -41 -128 -86 -268 -46 -140 -97 -300 -116 -355 -18 -55 -76 -235
-129 -400 -53 -165 -106 -325 -117 -356 -17 -50 -19 -84 -19 -330 l0 -274
-182 -49 c-101 -26 -237 -63 -303 -81 -151 -41 -327 -87 -338 -89 -5 0 -28 42
-51 94 -48 107 -43 104 -146 75 -30 -8 -140 -38 -245 -66 -104 -28 -213 -57
-241 -65 l-51 -14 -22 -103 c-12 -56 -24 -109 -27 -118 -3 -11 -61 -31 -204
-69 -110 -29 -203 -50 -207 -47 -3 4 17 109 46 234 87 383 91 400 91 422 0 28
-9 27 -156 -11 -80 -21 -127 -29 -133 -23 -5 6 -66 105 -136 220 -70 116 -132
215 -139 222 -9 10 -30 7 -96 -11 l-85 -23 -3 -271 -2 -271 -33 -10 c-17 -6
-66 -19 -107 -29 -70 -19 -287 -77 -529 -143 -57 -15 -107 -26 -111 -24 -4 2
-25 30 -47 62 -248 359 -261 376 -280 365 -6 -4 -38 -68 -70 -142 -154 -349
-197 -445 -199 -448 -2 -3 -174 -50 -358 -97 -54 -14 -101 -24 -104 -21 -2 3
38 103 91 223 187 428 285 649 314 713 62 135 76 172 67 178 -6 4 -102 138
-214 297 -112 160 -223 318 -247 351 -24 34 -43 66 -43 71 0 5 55 24 122 41
68 17 162 42 210 56 l87 24 75 -107 c142 -200 201 -281 207 -281 13 0 28 27
77 140 27 63 62 142 77 175 15 33 42 94 60 135 29 68 35 76 71 88 33 11 600
164 1006 271 200 53 367 40 492 -39 201 -128 289 -393 221 -661 -33 -131 -137
-306 -229 -386 -20 -18 -36 -35 -36 -39 0 -9 191 -327 206 -344 11 -11 17 -11
25 -3 10 10 56 201 139 573 69 310 112 505 114 507 0 1 35 10 76 21 41 11 129
35 195 52 66 18 126 33 133 34 13 1 45 -68 222 -474 54 -124 137 -313 185
-420 48 -107 111 -251 140 -320 130 -304 171 -385 191 -385 18 0 19 11 22 273
l2 272 -91 188 c-50 103 -148 302 -217 442 -164 336 -233 482 -230 485 5 5
385 105 397 105 6 0 60 -100 120 -222 59 -123 125 -258 146 -300 25 -52 43
-78 54 -78 16 0 62 129 237 678 22 71 30 83 53 89 14 3 105 28 201 54 188 51
215 56 207 37z"/>
<path d="M1852 4473 c-28 -65 -84 -190 -123 -278 -39 -88 -100 -227 -136 -310
-36 -82 -81 -183 -99 -223 -19 -41 -34 -78 -34 -84 0 -5 42 -69 93 -141 52
-73 152 -214 223 -314 84 -120 135 -183 146 -183 17 0 18 42 18 825 0 789 -1
825 -18 825 -14 0 -31 -30 -70 -117z"/>
<path d="M2515 4346 l-150 -41 -3 -214 c-1 -118 1 -218 6 -223 10 -10 171 31
228 58 99 47 194 191 202 306 5 67 -9 110 -46 138 -34 27 -64 24 -237 -24z"/>
<path d="M3665 3738 c-4 -13 -63 -267 -100 -436 -13 -57 -15 -86 -8 -93 13
-13 323 69 330 87 4 12 -155 389 -183 432 -16 24 -32 29 -39 10z"/>
<path d="M2010 1290 c-106 -20 -184 -63 -257 -143 -135 -146 -150 -380 -37
-549 48 -71 96 -112 174 -151 59 -29 75 -32 180 -35 134 -4 198 13 280 73 49
36 110 99 110 114 0 6 -119 94 -167 124 -8 5 -25 -4 -47 -26 -93 -94 -244 -85
-314 17 -66 98 -42 258 49 321 77 54 178 44 254 -26 l41 -38 84 65 c47 36 89
69 93 73 23 23 -120 136 -208 164 -62 21 -175 29 -235 17z"/>
<path d="M2880 1290 c-268 -48 -432 -296 -365 -555 32 -124 123 -231 245 -289
62 -30 70 -31 195 -31 112 0 138 3 187 23 110 44 206 140 250 249 19 49 23 76
23 168 0 103 -2 114 -32 178 -64 135 -196 234 -343 257 -73 11 -96 11 -160 0z
m199 -254 c26 -19 50 -47 67 -83 23 -47 26 -62 22 -124 -4 -57 -11 -79 -34
-112 -55 -78 -163 -109 -252 -72 -137 58 -175 257 -69 365 47 48 82 61 158 57
54 -2 74 -8 108 -31z"/>
<path d="M5480 1270 c-74 -27 -120 -66 -154 -133 -22 -43 -29 -72 -30 -115 -2
-140 76 -215 282 -268 171 -44 209 -72 163 -118 -44 -43 -202 -19 -300 46 -24
16 -46 28 -50 26 -11 -4 -144 -159 -139 -162 65 -47 141 -88 199 -107 63 -20
93 -24 204 -24 120 0 134 2 185 26 111 53 159 128 160 247 0 148 -65 207 -295
267 -127 32 -153 43 -160 66 -25 79 113 89 253 18 31 -16 60 -29 63 -29 7 0
119 158 119 168 0 15 -106 71 -174 91 -93 28 -248 29 -326 1z"/>
<path d="M0 851 l0 -431 120 0 120 0 0 130 0 130 48 0 48 0 85 -127 85 -128
142 -3 c78 -1 142 0 142 4 0 3 -9 18 -21 32 -12 15 -57 79 -100 142 -70 101
-78 116 -63 125 40 23 97 81 122 124 24 41 27 56 27 136 -1 106 -18 147 -88
212 -74 69 -112 76 -409 81 l-258 3 0 -430z m485 184 c17 -17 25 -35 25 -60 0
-80 -43 -105 -180 -105 l-90 0 0 95 0 95 110 0 c104 0 112 -1 135 -25z"/>
<path d="M870 850 l0 -430 350 0 350 0 0 105 0 105 -230 0 -230 0 0 65 0 65
205 0 205 0 0 95 0 95 -205 0 -205 0 0 60 0 60 225 0 225 0 0 105 0 105 -345
0 -345 0 0 -430z"/>
<path d="M3530 851 l0 -431 125 0 125 0 0 130 0 130 48 0 47 -1 85 -129 85
-130 143 0 c79 0 142 4 142 9 0 5 -4 11 -8 13 -5 2 -50 64 -101 138 l-92 135
23 14 c56 36 117 110 132 162 35 115 11 218 -67 294 -85 82 -114 89 -424 93
l-263 3 0 -430z m473 198 c42 -19 58 -74 36 -122 -18 -40 -48 -51 -156 -55
l-103 -4 0 96 0 96 100 0 c54 0 110 -5 123 -11z"/>
<path d="M4400 850 l0 -430 198 0 c281 0 386 27 491 125 88 82 131 183 131
304 -1 216 -129 370 -348 417 -45 9 -134 14 -269 14 l-203 0 0 -430z m467 182
c24 -13 55 -40 70 -64 24 -36 28 -51 28 -118 0 -67 -4 -82 -28 -118 -40 -61
-93 -85 -199 -90 l-88 -4 0 212 0 212 88 -4 c64 -3 98 -10 129 -26z"/>
</g>
</svg>
